<svg width="204" height="66" viewBox="0 0 204 66" fill="none" xmlns="http://www.w3.org/2000/svg">
<path d="M84.9547 31.578H79.2847C79.2847 30.228 79.2307 29.193 79.1227 28.473C79.0147 27.735 78.8347 27.231 78.5827 26.961C78.3487 26.673 78.0157 26.529 77.5837 26.529C77.1697 26.529 76.8367 26.673 76.5847 26.961C76.3327 27.231 76.1527 27.735 76.0447 28.473C75.9547 29.193 75.9007 30.228 75.8827 31.578H70.2127C70.2667 29.238 70.5457 27.402 71.0497 26.07C71.5537 24.72 72.3367 23.766 73.3987 23.208C74.4787 22.632 75.8737 22.344 77.5837 22.344C79.2937 22.344 80.6797 22.632 81.7417 23.208C82.8217 23.766 83.6137 24.72 84.1177 26.07C84.6397 27.402 84.9187 29.238 84.9547 31.578ZM79.2847 32.928H84.9547C84.9187 34.944 84.7117 36.591 84.3337 37.869C83.9737 39.147 83.4067 40.128 82.6327 40.812C83.0467 41.1 83.4247 41.442 83.7667 41.838C84.1087 42.234 84.3877 42.693 84.6037 43.215L79.6087 46.077L77.4487 42.27C75.7567 42.252 74.3797 41.955 73.3177 41.379C72.2737 40.803 71.4997 39.84 70.9957 38.49C70.5097 37.122 70.2487 35.268 70.2127 32.928H75.8827C75.9007 34.278 75.9637 35.331 76.0717 36.087C76.1797 36.825 76.3507 37.347 76.5847 37.653C76.8367 37.941 77.1697 38.085 77.5837 38.085C78.0157 38.085 78.3487 37.941 78.5827 37.653C78.8167 37.347 78.9877 36.825 79.0957 36.087C79.2037 35.331 79.2667 34.278 79.2847 32.928ZM135.857 31.713H130.187C130.241 29.337 130.574 27.474 131.186 26.124C131.816 24.756 132.716 23.784 133.886 23.208C135.056 22.632 136.505 22.344 138.233 22.344C138.809 22.344 139.466 22.38 140.204 22.452C140.96 22.506 141.689 22.614 142.391 22.776V29.904H139.124L138.692 26.637C138.242 26.637 137.837 26.691 137.477 26.799C137.135 26.907 136.847 27.132 136.613 27.474C136.379 27.798 136.199 28.302 136.073 28.986C135.947 29.67 135.875 30.579 135.857 31.713ZM130.187 33.063H135.857C135.947 34.899 136.334 36.168 137.018 36.87C137.702 37.554 138.728 37.896 140.096 37.896C140.528 37.896 140.942 37.869 141.338 37.815C141.734 37.761 142.157 37.698 142.607 37.626V41.892C142.085 42.018 141.455 42.108 140.717 42.162C139.979 42.234 139.322 42.27 138.746 42.27C135.776 42.27 133.625 41.496 132.293 39.948C130.979 38.4 130.277 36.105 130.187 33.063Z" fill="#3A86FF"/>
<path d="M95.186 38.409V41.919C94.592 42.117 94.016 42.216 93.458 42.216C92.216 42.216 91.181 41.829 90.353 41.055C89.543 40.281 89.138 39.12 89.138 37.572V26.475H93.998V36.789C93.998 37.761 94.394 38.301 95.186 38.409ZM96.266 39.921V26.475H101.126V42H96.995L96.266 39.921ZM105.974 26.475H110.834V42H105.974V26.475ZM105.839 21.615H110.969V25.287H105.839V21.615ZM120.764 26.475L118.712 30.255H115.607V26.475H120.764ZM119.198 41.946H115.418V39.03L122.168 26.475H125.894V29.337L119.198 41.946ZM120.575 42L122.6 38.22H126.137V42H120.575ZM151.919 42H147.059V22.263L151.919 21.615V42ZM163.253 31.389C163.253 30.867 163.073 30.516 162.713 30.336C162.353 30.138 161.894 30.039 161.336 30.039C160.652 30.039 159.995 30.102 159.365 30.228C158.735 30.354 158.105 30.534 157.475 30.768V26.988C158.285 26.808 159.122 26.646 159.986 26.502C160.868 26.34 161.75 26.259 162.632 26.259C163.622 26.259 164.531 26.385 165.359 26.637C166.187 26.871 166.853 27.303 167.357 27.933C167.861 28.563 168.113 29.463 168.113 30.633V42H163.901L163.253 39.678V31.389ZM161.903 38.652V41.973C161.435 42.171 160.931 42.27 160.391 42.27C159.671 42.27 158.996 42.09 158.366 41.73C157.736 41.352 157.223 40.812 156.827 40.11C156.431 39.408 156.233 38.562 156.233 37.572C156.233 36.06 156.755 34.908 157.799 34.116C158.861 33.306 160.229 32.892 161.903 32.874V35.736C161.615 35.862 161.381 36.042 161.201 36.276C161.039 36.492 160.958 36.771 160.958 37.113C160.958 37.527 161.048 37.869 161.228 38.139C161.408 38.391 161.633 38.562 161.903 38.652ZM178.322 31.848L175.865 35.736L174.839 35.061C173.993 34.503 173.381 33.9 173.003 33.252C172.625 32.604 172.436 31.758 172.436 30.714C172.436 29.22 172.877 28.113 173.759 27.393C174.641 26.655 176.09 26.277 178.106 26.259C178.862 26.259 179.555 26.295 180.185 26.367C180.833 26.421 181.346 26.484 181.724 26.556C182.12 26.628 182.318 26.664 182.318 26.664L181.913 30.255C181.913 30.255 181.778 30.237 181.508 30.201C181.238 30.165 180.887 30.129 180.455 30.093C180.041 30.039 179.609 30.012 179.159 30.012C178.511 30.012 178.043 30.066 177.755 30.174C177.467 30.282 177.323 30.489 177.323 30.795C177.323 30.975 177.377 31.128 177.485 31.254C177.593 31.362 177.764 31.488 177.998 31.632L178.322 31.848ZM176.999 36.465L179.483 32.604L180.374 33.171C181.238 33.729 181.859 34.332 182.237 34.98C182.615 35.61 182.804 36.429 182.804 37.437C182.804 39.039 182.345 40.245 181.427 41.055C180.509 41.847 179.006 42.252 176.918 42.27C176 42.27 175.154 42.216 174.38 42.108C173.624 42.018 172.931 41.892 172.301 41.73L172.706 38.058C172.706 38.058 173.039 38.112 173.705 38.22C174.371 38.31 175.253 38.355 176.351 38.355C177.341 38.355 177.836 38.058 177.836 37.464C177.836 37.158 177.611 36.861 177.161 36.573L176.999 36.465ZM191.976 42H187.116V22.317L191.976 21.615V42ZM193.326 30.066V26.556C193.92 26.358 194.496 26.259 195.054 26.259C196.296 26.259 197.322 26.646 198.132 27.42C198.96 28.194 199.374 29.355 199.374 30.903V42H194.514V31.686C194.514 30.714 194.118 30.174 193.326 30.066Z" fill="black"/>
<path d="M21.239 17.4189C26.8655 9.08567 39.1345 9.08568 44.761 17.4189C45.778 18.9252 47.0748 20.222 48.5811 21.239C56.9143 26.8655 56.9143 39.1345 48.5811 44.761C47.0748 45.778 45.778 47.0748 44.761 48.5811C39.1345 56.9143 26.8655 56.9143 21.239 48.5811C20.222 47.0748 18.9252 45.778 17.4189 44.761C9.08567 39.1345 9.08568 26.8655 17.4189 21.239C18.9252 20.222 20.222 18.9252 21.239 17.4189Z" fill="url(#paint0_linear_2376_21717)"/>
<path d="M44.4838 18.0559C38.99 9.91922 27.0104 9.91922 21.5167 18.0559C20.5954 19.4205 19.4205 20.5954 18.0559 21.5167C9.91922 27.0104 9.91922 38.99 18.0559 44.4838C19.4205 45.4051 20.5954 46.58 21.5167 47.9446C27.0104 56.0812 38.99 56.0812 44.4838 47.9446C45.4051 46.58 46.58 45.4051 47.9446 44.4838C56.0812 38.99 56.0812 27.0104 47.9446 21.5167C46.58 20.5954 45.4051 19.4205 44.4838 18.0559Z" fill="url(#paint1_linear_2376_21717)" stroke="white"/>
<circle cx="33.0001" cy="10.7281" r="0.5" fill="#85BBFF" stroke="white" stroke-width="0.839009"/>
<circle cx="55.2725" cy="32.898" r="0.5" fill="#85BBFF" stroke="white" stroke-width="0.839009"/>
<circle cx="33.1021" cy="55.1695" r="0.5" fill="#85BBFF" stroke="white" stroke-width="0.839009"/>
<circle cx="10.8297" cy="32.898" r="0.5" fill="#85BBFF" stroke="white" stroke-width="0.839009"/>
<path fill-rule="evenodd" clip-rule="evenodd" d="M27.6997 31.4911C29.7942 31.4911 31.4921 29.7932 31.4921 27.6987C31.4921 25.6042 29.7942 23.9062 27.6997 23.9062C25.6052 23.9062 23.9072 25.6042 23.9072 27.6987C23.9072 29.7932 25.6052 31.4911 27.6997 31.4911ZM27.6997 31.2868C29.6813 31.2868 31.2877 29.6803 31.2877 27.6987C31.2877 25.717 29.6813 24.1106 27.6997 24.1106C25.718 24.1106 24.1116 25.717 24.1116 27.6987C24.1116 29.6803 25.718 31.2868 27.6997 31.2868Z" fill="white"/>
<path fill-rule="evenodd" clip-rule="evenodd" d="M32.6011 27.8609L32.8656 25.7448H33.0684L33.3329 27.8609C33.6417 30.3311 35.539 32.3037 37.9954 32.7083L38.6028 32.8084L38.6028 33.01L37.9954 33.1101C35.539 33.5147 33.6417 35.4873 33.3329 37.9575L33.0684 40.0736H32.8656L32.6011 37.9575C32.2923 35.4873 30.3949 33.5147 27.9385 33.11L27.3312 33.01V32.8084L27.9385 32.7083C30.3949 32.3037 32.2923 30.3311 32.6011 27.8609ZM32.967 26.5811L32.8038 27.8862C32.484 30.4447 30.5198 32.4882 27.9764 32.9092C30.5198 33.3302 32.484 35.3737 32.8038 37.9322L32.967 39.2373L33.1301 37.9322C33.45 35.3736 35.4141 33.3302 37.9576 32.9092C35.4141 32.4882 33.45 30.4447 33.1301 27.8862L32.967 26.5811Z" fill="white"/>
<path fill-rule="evenodd" clip-rule="evenodd" d="M27.6997 42.0143C29.7942 42.0143 31.4921 40.3164 31.4921 38.2219C31.4921 36.1274 29.7942 34.4295 27.6997 34.4295C25.6052 34.4295 23.9072 36.1274 23.9072 38.2219C23.9072 40.3164 25.6052 42.0143 27.6997 42.0143ZM27.6997 41.81C29.6813 41.81 31.2877 40.2035 31.2877 38.2219C31.2877 36.2402 29.6813 34.6338 27.6997 34.6338C25.718 34.6338 24.1116 36.2402 24.1116 38.2219C24.1116 40.2035 25.718 41.81 27.6997 41.81Z" fill="white"/>
<path fill-rule="evenodd" clip-rule="evenodd" d="M42.0376 38.2219C42.0376 40.3164 40.3397 42.0143 38.2452 42.0143C36.1507 42.0143 34.4528 40.3164 34.4528 38.2219C34.4528 36.1274 36.1507 34.4295 38.2452 34.4295C40.3397 34.4295 42.0376 36.1274 42.0376 38.2219ZM41.8333 38.2219C41.8333 40.2035 40.2268 41.81 38.2452 41.81C36.2635 41.81 34.6571 40.2035 34.6571 38.2219C34.6571 36.2402 36.2635 34.6338 38.2452 34.6338C40.2268 34.6338 41.8333 36.2402 41.8333 38.2219Z" fill="white"/>
<path fill-rule="evenodd" clip-rule="evenodd" d="M42.0376 27.6987C42.0376 29.7932 40.3397 31.4911 38.2452 31.4911C36.1507 31.4911 34.4528 29.7932 34.4528 27.6987C34.4528 25.6042 36.1507 23.9062 38.2452 23.9062C40.3397 23.9062 42.0376 25.6042 42.0376 27.6987ZM41.8333 27.6987C41.8333 29.6803 40.2268 31.2868 38.2452 31.2868C36.2635 31.2868 34.6571 29.6803 34.6571 27.6987C34.6571 25.717 36.2635 24.1106 38.2452 24.1106C40.2268 24.1106 41.8333 25.717 41.8333 27.6987Z" fill="white"/>
<path fill-rule="evenodd" clip-rule="evenodd" d="M44.8045 30.0628L44.8003 30.0371L44.7961 30.0628C44.5584 30.0744 44.3614 31.0665 44.3222 32.3685C43.0201 32.4078 42.028 32.6048 42.0164 32.8425L41.9907 32.8467L42.0164 32.8509C42.028 33.0886 43.0201 33.2856 44.3222 33.3249C44.3614 34.6269 44.5584 35.619 44.7961 35.6307L44.8003 35.6563L44.8045 35.6307C45.0422 35.619 45.2392 34.6269 45.2785 33.3249C46.5805 33.2856 47.5726 33.0886 47.5843 32.8509L47.6099 32.8467L47.5843 32.8425C47.5726 32.6048 46.5805 32.4078 45.2785 32.3685C45.2392 31.0665 45.0422 30.0744 44.8045 30.0628ZM44.7748 30.1922C44.7543 30.2184 44.7307 30.26 44.7059 30.3204C44.652 30.4512 44.6012 30.6466 44.5578 30.8956C44.4922 31.2722 44.4452 31.7601 44.4263 32.3075L44.7748 30.1922ZM45.1743 32.3075L44.8259 30.1922C44.8463 30.2184 44.8699 30.26 44.8948 30.3204C44.9487 30.4512 44.9994 30.6466 45.0428 30.8956C45.1085 31.2722 45.1554 31.7601 45.1743 32.3075ZM44.2611 32.4727C43.7137 32.4916 43.2258 32.5386 42.8492 32.6042C42.6002 32.6476 42.4048 32.6984 42.274 32.7523C42.2136 32.7771 42.172 32.8007 42.1459 32.8212L44.2611 32.4727ZM42.1459 32.8723L44.2611 33.2207C43.7137 33.2018 43.2258 33.1549 42.8492 33.0892C42.6002 33.0458 42.4048 32.995 42.274 32.9411C42.2136 32.9163 42.172 32.8927 42.1459 32.8723ZM44.4263 33.3859L44.7748 35.5012C44.7543 35.475 44.7307 35.4334 44.7059 35.373C44.652 35.2423 44.6012 35.0468 44.5578 34.7978C44.4922 34.4212 44.4452 33.9333 44.4263 33.3859ZM44.8259 35.5012L45.1743 33.3859C45.1554 33.9333 45.1085 34.4212 45.0428 34.7978C44.9994 35.0468 44.9487 35.2423 44.8948 35.373C44.8699 35.4334 44.8463 35.475 44.8259 35.5012ZM45.3395 33.2207L47.4548 32.8723C47.4287 32.8927 47.387 32.9163 47.3267 32.9411C47.1959 32.995 47.0005 33.0458 46.7514 33.0892C46.3748 33.1549 45.887 33.2018 45.3395 33.2207ZM47.4548 32.8212L45.3395 32.4727C45.887 32.4916 46.3748 32.5386 46.7514 32.6042C47.0005 32.6476 47.1959 32.6984 47.3267 32.7523C47.387 32.7771 47.4287 32.8007 47.4548 32.8212Z" fill="white"/>
<path fill-rule="evenodd" clip-rule="evenodd" d="M32.953 18.3128L32.9488 18.2871L32.9445 18.3128C32.7068 18.3244 32.5099 19.3165 32.4706 20.6185C31.1685 20.6578 30.1764 20.8548 30.1648 21.0925L30.1392 21.0967L30.1648 21.1009C30.1764 21.3386 31.1685 21.5356 32.4706 21.5749C32.5099 22.8769 32.7068 23.869 32.9445 23.8807L32.9488 23.9063L32.953 23.8807C33.1907 23.869 33.3876 22.8769 33.4269 21.5749C34.729 21.5356 35.7211 21.3386 35.7327 21.1009L35.7584 21.0967L35.7327 21.0925C35.7211 20.8548 34.729 20.6578 33.4269 20.6185C33.3876 19.3165 33.1907 18.3244 32.953 18.3128ZM32.9232 18.4422C32.9028 18.4684 32.8792 18.51 32.8543 18.5704C32.8004 18.7012 32.7497 18.8966 32.7062 19.1456C32.6406 19.5222 32.5936 20.0101 32.5748 20.5575L32.9232 18.4422ZM33.3227 20.5575L32.9743 18.4422C32.9948 18.4684 33.0183 18.51 33.0432 18.5704C33.0971 18.7012 33.1478 18.8966 33.1913 19.1456C33.2569 19.5222 33.3039 20.0101 33.3227 20.5575ZM32.4096 20.7227C31.8621 20.7416 31.3742 20.7886 30.9977 20.8542C30.7486 20.8976 30.5532 20.9484 30.4224 21.0023C30.3621 21.0271 30.3204 21.0507 30.2943 21.0712L32.4096 20.7227ZM30.2943 21.1223L32.4096 21.4707C31.8621 21.4518 31.3742 21.4049 30.9977 21.3392C30.7486 21.2958 30.5532 21.245 30.4224 21.1911C30.3621 21.1663 30.3204 21.1427 30.2943 21.1223ZM32.5748 21.6359L32.9232 23.7512C32.9028 23.725 32.8792 23.6834 32.8543 23.623C32.8004 23.4923 32.7497 23.2968 32.7062 23.0478C32.6406 22.6712 32.5936 22.1833 32.5748 21.6359ZM32.9743 23.7512L33.3227 21.6359C33.3039 22.1833 33.2569 22.6712 33.1913 23.0478C33.1478 23.2968 33.0971 23.4923 33.0432 23.623C33.0183 23.6834 32.9948 23.725 32.9743 23.7512ZM33.488 21.4707L35.6032 21.1223C35.5771 21.1427 35.5354 21.1663 35.4751 21.1911C35.3443 21.245 35.1489 21.2958 34.8998 21.3392C34.5233 21.4049 34.0354 21.4518 33.488 21.4707ZM35.6032 21.0712L33.488 20.7227C34.0354 20.7416 34.5233 20.7886 34.8998 20.8542C35.1489 20.8976 35.3443 20.9484 35.4751 21.0023C35.5354 21.0271 35.5771 21.0507 35.6032 21.0712Z" fill="white"/>
<path fill-rule="evenodd" clip-rule="evenodd" d="M21.1019 30.0628L21.0977 30.0371L21.0935 30.0628C20.8557 30.0744 20.6588 31.0665 20.6195 32.3685C19.3175 32.4078 18.3254 32.6048 18.3137 32.8425L18.2881 32.8467L18.3137 32.8509C18.3254 33.0886 19.3175 33.2856 20.6195 33.3249C20.6588 34.6269 20.8557 35.619 21.0935 35.6307L21.0977 35.6563L21.1019 35.6307C21.3396 35.619 21.5366 34.6269 21.5758 33.3249C22.8779 33.2856 23.87 33.0886 23.8816 32.8509L23.9073 32.8467L23.8816 32.8425C23.87 32.6048 22.8779 32.4078 21.5758 32.3685C21.5366 31.0665 21.3396 30.0744 21.1019 30.0628ZM21.0721 30.1922C21.0517 30.2184 21.0281 30.26 21.0032 30.3204C20.9493 30.4512 20.8986 30.6466 20.8552 30.8956C20.7895 31.2722 20.7426 31.7601 20.7237 32.3075L21.0721 30.1922ZM21.4717 32.3075L21.1232 30.1922C21.1437 30.2184 21.1673 30.26 21.1921 30.3204C21.246 30.4512 21.2968 30.6466 21.3402 30.8956C21.4058 31.2722 21.4528 31.7601 21.4717 32.3075ZM20.5585 32.4727C20.011 32.4916 19.5232 32.5386 19.1466 32.6042C18.8976 32.6476 18.7021 32.6984 18.5713 32.7523C18.511 32.7771 18.4693 32.8007 18.4432 32.8212L20.5585 32.4727ZM18.4432 32.8723L20.5585 33.2207C20.011 33.2018 19.5232 33.1549 19.1466 33.0892C18.8976 33.0458 18.7021 32.995 18.5713 32.9411C18.511 32.9163 18.4693 32.8927 18.4432 32.8723ZM20.7237 33.3859L21.0721 35.5012C21.0517 35.475 21.0281 35.4334 21.0032 35.373C20.9493 35.2423 20.8986 35.0468 20.8552 34.7978C20.7895 34.4212 20.7426 33.9333 20.7237 33.3859ZM21.1232 35.5012L21.4717 33.3859C21.4528 33.9333 21.4058 34.4212 21.3402 34.7978C21.2968 35.0468 21.246 35.2423 21.1921 35.373C21.1673 35.4334 21.1437 35.475 21.1232 35.5012ZM21.6369 33.2207L23.7522 32.8723C23.726 32.8927 23.6844 32.9163 23.624 32.9411C23.4932 32.995 23.2978 33.0458 23.0488 33.0892C22.6722 33.1549 22.1843 33.2018 21.6369 33.2207ZM23.7522 32.8212L21.6369 32.4727C22.1843 32.4916 22.6722 32.5386 23.0488 32.6042C23.2978 32.6476 23.4932 32.6984 23.624 32.7523C23.6844 32.7771 23.726 32.8007 23.7522 32.8212Z" fill="white"/>
<path fill-rule="evenodd" clip-rule="evenodd" d="M32.953 42.0159L32.9488 41.9902L32.9445 42.0159C32.7068 42.0275 32.5099 43.0196 32.4706 44.3217C31.1685 44.361 30.1764 44.5579 30.1648 44.7956L30.1392 44.7998L30.1648 44.8041C30.1764 45.0418 31.1685 45.2387 32.4706 45.278C32.5099 46.58 32.7068 47.5722 32.9445 47.5838L32.9488 47.6094L32.953 47.5838C33.1907 47.5722 33.3876 46.58 33.4269 45.278C34.729 45.2387 35.7211 45.0418 35.7327 44.8041L35.7584 44.7998L35.7327 44.7956C35.7211 44.5579 34.729 44.361 33.4269 44.3217C33.3876 43.0196 33.1907 42.0275 32.953 42.0159ZM32.9232 42.1454C32.9028 42.1715 32.8792 42.2132 32.8543 42.2735C32.8004 42.4043 32.7497 42.5997 32.7062 42.8488C32.6406 43.2253 32.5936 43.7132 32.5748 44.2607L32.9232 42.1454ZM33.3227 44.2607L32.9743 42.1454C32.9948 42.1715 33.0183 42.2132 33.0432 42.2735C33.0971 42.4043 33.1478 42.5997 33.1913 42.8488C33.2569 43.2253 33.3039 43.7132 33.3227 44.2607ZM32.4096 44.4259C31.8621 44.4447 31.3742 44.4917 30.9977 44.5573C30.7486 44.6007 30.5532 44.6515 30.4224 44.7054C30.3621 44.7303 30.3204 44.7538 30.2943 44.7743L32.4096 44.4259ZM30.2943 44.8254L32.4096 45.1738C31.8621 45.155 31.3742 45.108 30.9977 45.0423C30.7486 44.9989 30.5532 44.9482 30.4224 44.8943C30.3621 44.8694 30.3204 44.8458 30.2943 44.8254ZM32.5748 45.339L32.9232 47.4543C32.9028 47.4282 32.8792 47.3865 32.8543 47.3262C32.8004 47.1954 32.7497 47 32.7062 46.7509C32.6406 46.3743 32.5936 45.8865 32.5748 45.339ZM32.9743 47.4543L33.3227 45.339C33.3039 45.8865 33.2569 46.3743 33.1913 46.7509C33.1478 47 33.0971 47.1954 33.0432 47.3262C33.0183 47.3865 32.9948 47.4282 32.9743 47.4543ZM33.488 45.1738L35.6032 44.8254C35.5771 44.8458 35.5354 44.8694 35.4751 44.8943C35.3443 44.9482 35.1489 44.9989 34.8998 45.0423C34.5233 45.108 34.0354 45.1549 33.488 45.1738ZM35.6032 44.7743L33.488 44.4259C34.0354 44.4447 34.5233 44.4917 34.8998 44.5573C35.1489 44.6007 35.3443 44.6515 35.4751 44.7054C35.5354 44.7303 35.5771 44.7538 35.6032 44.7743Z" fill="white"/>
<defs>
<linearGradient id="paint0_linear_2376_21717" x1="38.971" y1="5.18419e-06" x2="15.8443" y2="4.18451" gradientUnits="userSpaceOnUse">
<stop stop-color="#519EFF"/>
<stop offset="0.214" stop-color="#4B9BFF"/>
<stop offset="0.655" stop-color="#3F94FF"/>
<stop offset="1" stop-color="#368FFF"/>
</linearGradient>
<linearGradient id="paint1_linear_2376_21717" x1="38.62" y1="1.94141" x2="16.8536" y2="5.87977" gradientUnits="userSpaceOnUse">
<stop stop-color="#519EFF"/>
<stop offset="0.214" stop-color="#4B9BFF"/>
<stop offset="0.655" stop-color="#3F94FF"/>
<stop offset="1" stop-color="#368FFF"/>
</linearGradient>
</defs>
</svg>
