<svg width="1728" height="1117" viewBox="0 0 1728 1117" fill="none" xmlns="http://www.w3.org/2000/svg">
<g clip-path="url(#clip0_2376_22127)">
<rect width="1728" height="1117" fill="white"/>
<path opacity="0.12" d="M1671 -4.04151C1671 -29.9757 1692.04 -51 1718 -51C1743.96 -51 1765 -29.9757 1765 -4.04151V106.042C1765 131.976 1743.96 153 1718 153C1692.04 153 1671 131.976 1671 106.042V-4.04151Z" stroke="#137CFF" stroke-width="30" stroke-linejoin="round"/>
<path opacity="0.42" d="M88.7584 585.5C88.7584 609.523 108.06 629 131.875 629C155.691 629 175 609.523 175 585.5C175 561.477 155.691 542 131.875 542L1.03746e-06 542" stroke="#CFE4FF" stroke-width="30" stroke-linejoin="round"/>
<path opacity="0.08" d="M1283.56 966C1305.34 966 1323 948.539 1323 927C1323 905.461 1305.34 888 1283.56 888H1239" stroke="#137CFF" stroke-width="30" stroke-linejoin="round"/>
<path opacity="0.08" d="M1183 802H1362.98C1431.47 802 1487 857.741 1487 926.5C1487 995.259 1431.47 1051 1362.98 1051H1308.83" stroke="#137CFF" stroke-width="30" stroke-linejoin="round"/>
<path opacity="0.08" d="M456 574C473.673 574 488 559.673 488 542C488 524.327 473.673 510 456 510C438.327 510 424 524.327 424 542C424 559.673 438.327 574 456 574Z" stroke="#137CFF" stroke-width="30" stroke-linejoin="round"/>
<path opacity="0.08" d="M534 559C584.807 559 626 518.482 626 468.5C626 418.518 584.807 378 534 378C483.193 378 442 418.518 442 468.5" stroke="#137CFF" stroke-width="30" stroke-linejoin="round"/>
<path opacity="0.35" d="M939 74C939.019 84 939.038 94 939.057 104" stroke="#F8E8F6" stroke-width="30" stroke-linejoin="round"/>
<path opacity="0.42" d="M-1.25 1001H-4.18694C-25.0686 1001 -42 1018.46 -42 1040C-42 1061.54 -25.0686 1079 -4.18694 1079H83.1869C104.069 1079 121 1061.54 121 1040C121 1018.46 104.069 1001 83.1869 1001H80.25" stroke="#D8E9FF" stroke-width="30" stroke-linejoin="round"/>
<path opacity="0.1" d="M1712.82 756.21L1706.23 767.627C1696.93 783.73 1676.25 789.198 1660.05 779.847C1643.85 770.491 1638.25 749.851 1647.54 733.748L1653 724.291C1662.23 708.31 1656.67 687.828 1640.6 678.547C1624.52 669.261 1604 674.689 1594.77 690.67L1588.05 702.309" stroke="#137CFF" stroke-width="30" stroke-linejoin="round"/>
<path opacity="0.07" d="M1016 302C1030.91 302 1043 290.136 1043 275.5C1043 260.864 1030.91 249 1016 249C1001.09 249 989 260.864 989 275.5C989 290.136 1001.09 302 1016 302Z" stroke="#137CFF" stroke-width="30" stroke-linejoin="round"/>
<path opacity="0.07" d="M974 196H1017.15C1060.7 196 1096 231.454 1096 275.195V356" stroke="#137CFF" stroke-width="30" stroke-linejoin="round"/>
<path opacity="0.07" d="M1052.5 344H1049.36C1027.07 344 1009 362.135 1009 384.5C1009 406.865 1027.07 425 1049.36 425H1142.64C1164.93 425 1183 406.865 1183 384.5C1183 362.135 1164.93 344 1142.64 344H1139.5" stroke="#137CFF" stroke-width="30" stroke-linejoin="round"/>
<path opacity="0.04" d="M736 718.437C736 696.66 753.459 679 775 679C796.541 679 814 696.66 814 718.437V763" stroke="#137CFF" stroke-width="30" stroke-linejoin="round"/>
<path opacity="0.04" d="M815.733 837.5C815.733 858.211 799.001 875 778.367 875C757.732 875 741 858.211 741 837.5C741 816.789 757.732 800 778.367 800H918" stroke="#137CFF" stroke-width="30" stroke-linejoin="round"/>
<path opacity="0.07" d="M456 127C456 176.706 415.706 217 366 217C316.294 217 276 176.706 276 127" stroke="#137CFF" stroke-width="30" stroke-linejoin="round"/>
<path opacity="0.07" d="M326 110.225V-0.224998C326 -21.6398 343.461 -39 365 -39C386.539 -39 404 -21.6398 404 -0.224998V110.225C404 131.64 386.539 149 365 149C343.461 149 326 131.64 326 110.225Z" stroke="#137CFF" stroke-width="30" stroke-linejoin="round"/>
</g>
<defs>
<clipPath id="clip0_2376_22127">
<rect width="1728" height="1117" fill="white"/>
</clipPath>
</defs>
</svg>
